<svg width="64" height="64" viewBox="0 0 64 64" fill="none" xmlns="http://www.w3.org/2000/svg">
<rect x="9.60001" y="13.3954" width="44.8" height="37.2093" fill="#FFC75B"/>
<path d="M38.2277 39.2631C37.8467 39.7274 37.3942 40.0787 36.8703 40.3168C36.3583 40.5669 35.7987 40.6919 35.1914 40.6919C34.4532 40.6919 33.7507 40.5074 33.0839 40.1382C32.429 39.781 31.6908 39.1738 30.8692 38.3165C29.6666 38.2807 28.5831 37.9831 27.6186 37.4234C26.6541 36.8638 25.8981 36.1077 25.3503 35.1552C24.8026 34.2026 24.5288 33.1369 24.5288 31.9581C24.5288 30.7555 24.8086 29.672 25.3682 28.7075C25.9397 27.7431 26.7256 26.987 27.7258 26.4393C28.7379 25.8796 29.8631 25.5998 31.1014 25.5998C32.3397 25.5998 33.453 25.8737 34.4413 26.4214C35.4415 26.9691 36.2274 27.7312 36.7989 28.7075C37.3704 29.672 37.6562 30.7555 37.6562 31.9581C37.6562 33.006 37.4359 33.9704 36.9954 34.8515C36.5667 35.7207 35.9594 36.4471 35.1736 37.0305C34.3996 37.614 33.5066 38.0009 32.4945 38.1914C33.4114 39.1559 34.3163 39.6381 35.2093 39.6381C36.1381 39.6381 36.9299 39.2571 37.5848 38.4951L38.2277 39.2631ZM25.8326 31.9581C25.8326 32.9345 26.0588 33.8156 26.5113 34.6015C26.9756 35.3874 27.6067 36.0065 28.4045 36.459C29.2141 36.9114 30.1131 37.1377 31.1014 37.1377C32.0897 37.1377 32.9827 36.9114 33.7805 36.459C34.5782 36.0065 35.2034 35.3874 35.6558 34.6015C36.1083 33.8156 36.3345 32.9345 36.3345 31.9581C36.3345 30.9818 36.1083 30.1007 35.6558 29.3148C35.2034 28.5289 34.5782 27.9098 33.7805 27.4573C32.9827 27.0048 32.0897 26.7786 31.1014 26.7786C30.1131 26.7786 29.2141 27.0048 28.4045 27.4573C27.6067 27.9098 26.9756 28.5289 26.5113 29.3148C26.0588 30.1007 25.8326 30.9818 25.8326 31.9581Z" fill="#1D1D1D"/>
<path d="M8.79996 13.3953V7.44186H7.29596L8.89596 4.46511H4.30396L2.39996 8.00744V13.3953H8.79996ZM7.19996 11.907H3.99996V8.36465L5.29596 5.95348H6.30396L4.70396 8.93023H7.19996V11.907ZM16.8 13.3953V7.44186H15.296L16.896 4.46511H12.304L10.4 8.00744V13.3953H16.8ZM15.2 11.907H12V8.36465L13.296 5.95348H14.304L12.704 8.93023H15.2V11.907Z" fill="#1F1F1F"/>
<path d="M55.2 50.6047V56.5581H56.704L55.104 59.5349H59.696L61.6 55.9926V50.6047H55.2ZM56.8 52.093H60V55.6354L58.704 58.0465H57.696L59.296 55.0698H56.8V52.093ZM47.2 50.6047V56.5581H48.704L47.104 59.5349H51.696L53.6 55.9926V50.6047H47.2ZM48.8 52.093H52V55.6354L50.704 58.0465H49.696L51.296 55.0698H48.8V52.093Z" fill="#1F1F1F"/>
</svg>
