<svg width="474" height="173" viewBox="0 0 474 173" fill="none" xmlns="http://www.w3.org/2000/svg">
<rect x="32" y="61" width="410" height="64" fill="#FFC75B"/>
<path d="M117.584 42.504V111.624H110.768V83.496C108.656 86.76 105.936 89.256 102.608 90.984C99.344 92.648 95.664 93.48 91.568 93.48C86.768 93.48 82.448 92.424 78.608 90.312C74.832 88.136 71.856 85.096 69.68 81.192C67.504 77.288 66.416 72.808 66.416 67.752C66.416 62.76 67.504 58.312 69.68 54.408C71.856 50.504 74.864 47.496 78.704 45.384C82.544 43.208 86.832 42.12 91.568 42.12C95.792 42.12 99.568 43.016 102.896 44.808C106.288 46.6 109.008 49.16 111.056 52.488V42.504H117.584ZM92.144 87.432C95.664 87.432 98.832 86.632 101.648 85.032C104.528 83.368 106.768 81.032 108.368 78.024C110.032 75.016 110.864 71.592 110.864 67.752C110.864 63.912 110.032 60.52 108.368 57.576C106.768 54.568 104.528 52.232 101.648 50.568C98.832 48.904 95.664 48.072 92.144 48.072C88.56 48.072 85.328 48.904 82.448 50.568C79.632 52.232 77.392 54.568 75.728 57.576C74.128 60.52 73.328 63.912 73.328 67.752C73.328 71.592 74.128 75.016 75.728 78.024C77.392 81.032 79.632 83.368 82.448 85.032C85.328 86.632 88.56 87.432 92.144 87.432ZM182.071 42.504V93H175.542V83.784C173.751 86.856 171.287 89.256 168.151 90.984C165.015 92.648 161.431 93.48 157.399 93.48C150.807 93.48 145.591 91.656 141.751 88.008C137.975 84.296 136.087 78.888 136.087 71.784V42.504H142.903V71.112C142.903 76.424 144.215 80.456 146.839 83.208C149.463 85.96 153.207 87.336 158.071 87.336C163.383 87.336 167.575 85.736 170.647 82.536C173.719 79.272 175.255 74.76 175.255 69V42.504H182.071ZM221.8 93.48C216.936 93.48 212.552 92.392 208.648 90.216C204.744 87.976 201.672 84.904 199.432 81C197.192 77.096 196.072 72.68 196.072 67.752C196.072 62.824 197.192 58.408 199.432 54.504C201.672 50.6 204.744 47.56 208.648 45.384C212.552 43.208 216.936 42.12 221.8 42.12C226.664 42.12 231.048 43.208 234.952 45.384C238.856 47.56 241.896 50.6 244.072 54.504C246.312 58.408 247.432 62.824 247.432 67.752C247.432 72.68 246.312 77.096 244.072 81C241.896 84.904 238.856 87.976 234.952 90.216C231.048 92.392 226.664 93.48 221.8 93.48ZM221.8 87.432C225.384 87.432 228.584 86.632 231.4 85.032C234.28 83.368 236.52 81.032 238.12 78.024C239.72 75.016 240.52 71.592 240.52 67.752C240.52 63.912 239.72 60.488 238.12 57.48C236.52 54.472 234.28 52.168 231.4 50.568C228.584 48.904 225.384 48.072 221.8 48.072C218.216 48.072 214.984 48.904 212.104 50.568C209.288 52.168 207.048 54.472 205.384 57.48C203.784 60.488 202.984 63.912 202.984 67.752C202.984 71.592 203.784 75.016 205.384 78.024C207.048 81.032 209.288 83.368 212.104 85.032C214.984 86.632 218.216 87.432 221.8 87.432ZM287.94 89.928C286.66 91.08 285.06 91.976 283.14 92.616C281.284 93.192 279.332 93.48 277.284 93.48C272.548 93.48 268.9 92.2 266.34 89.64C263.78 87.08 262.5 83.464 262.5 78.792V48.264H253.476V42.504H262.5V31.464H269.316V42.504H284.676V48.264H269.316V78.408C269.316 81.416 270.052 83.72 271.524 85.32C273.06 86.856 275.236 87.624 278.052 87.624C279.46 87.624 280.804 87.4 282.084 86.952C283.428 86.504 284.58 85.864 285.54 85.032L287.94 89.928ZM342.535 69.864H300.295C300.679 75.112 302.695 79.368 306.343 82.632C309.991 85.832 314.599 87.432 320.167 87.432C323.303 87.432 326.183 86.888 328.807 85.8C331.431 84.648 333.703 82.984 335.623 80.808L339.463 85.224C337.223 87.912 334.407 89.96 331.015 91.368C327.687 92.776 324.007 93.48 319.975 93.48C314.791 93.48 310.183 92.392 306.151 90.216C302.183 87.976 299.079 84.904 296.839 81C294.599 77.096 293.479 72.68 293.479 67.752C293.479 62.824 294.535 58.408 296.647 54.504C298.823 50.6 301.767 47.56 305.479 45.384C309.255 43.208 313.479 42.12 318.151 42.12C322.823 42.12 327.015 43.208 330.727 45.384C334.439 47.56 337.351 50.6 339.463 54.504C341.575 58.344 342.631 62.76 342.631 67.752L342.535 69.864ZM318.151 47.976C313.287 47.976 309.191 49.544 305.863 52.68C302.599 55.752 300.743 59.784 300.295 64.776H336.103C335.655 59.784 333.767 55.752 330.439 52.68C327.175 49.544 323.079 47.976 318.151 47.976ZM382.232 42.12C388.568 42.12 393.592 43.976 397.304 47.688C401.08 51.336 402.968 56.68 402.968 63.72V93H396.152V64.392C396.152 59.144 394.84 55.144 392.216 52.392C389.592 49.64 385.848 48.264 380.984 48.264C375.544 48.264 371.224 49.896 368.024 53.16C364.888 56.36 363.32 60.808 363.32 66.504V93H356.504V21.768H363.32V51.336C365.176 48.392 367.736 46.12 371 44.52C374.264 42.92 378.008 42.12 382.232 42.12Z" fill="#1D1D1D"/>
<path d="M29.3333 61V39.6667H24.32L29.6533 29H14.3467L8 41.6933V61H29.3333ZM24 55.6667H13.3333V42.9733L17.6533 34.3333H21.0133L15.68 45H24V55.6667ZM56 61V39.6667H50.9867L56.32 29H41.0133L34.6667 41.6933V61H56ZM50.6667 55.6667H40V42.9733L44.32 34.3333H47.68L42.3467 45H50.6667V55.6667Z" fill="#1F1F1F"/>
<path d="M444.667 125V146.333H449.68L444.347 157H459.653L466 144.307V125H444.667ZM450 130.333H460.667V143.027L456.347 151.667H452.987L458.32 141H450V130.333ZM418 125V146.333H423.013L417.68 157H432.987L439.333 144.307V125H418ZM423.333 130.333H434V143.027L429.68 151.667H426.32L431.653 141H423.333V130.333Z" fill="#1F1F1F"/>
</svg>
